<svg xmlns="http://www.w3.org/2000/svg" width="42.011" height="52" viewBox="0 0 42.011 52">
  <g id="Grupo_4040" data-name="Grupo 4040" transform="translate(-341.227 -780.254)">
    <g id="Grupo_4022" data-name="Grupo 4022" transform="translate(373.049 810.101)">
      <rect id="Rectángulo_2520" data-name="Rectángulo 2520" width="1.272" height="1.047" rx="0.524" transform="translate(0 0)" fill="#0074ff"/>
    </g>
    <g id="Grupo_4024" data-name="Grupo 4024" transform="translate(341.947 808.443)">
      <g id="Grupo_4023" data-name="Grupo 4023" transform="translate(0 0)">
        <path id="Trazado_8072" data-name="Trazado 8072" d="M369.032,875.327H354.669a6.294,6.294,0,0,0-10.889-.232.166.166,0,0,0,.144.25c1.175-.011,5.478-.019,5.478-.019a2.854,2.854,0,0,1,2.546,1.581,2.806,2.806,0,0,1-.09,2.7,2.852,2.852,0,0,1-2.455,1.415s-4.3-.015-5.606-.041a.222.222,0,0,0-.2.329,6.292,6.292,0,0,0,11.09.065h23.356a3.086,3.086,0,0,0,3.079-2.546,3.032,3.032,0,0,0-2.987-3.5h-2.3" transform="translate(-343.572 -872.072)" fill="#89ff00"/>
      </g>
    </g>
    <g id="Grupo_4026" data-name="Grupo 4026" transform="translate(342.176 807.063)">
      <g id="Grupo_4025" data-name="Grupo 4025" transform="translate(0 0)">
        <path id="Trazado_8073" data-name="Trazado 8073" d="M350.211,880.781a6.59,6.59,0,0,1-5.83-3.514.529.529,0,0,1,.475-.78c1.287.027,5.557.041,5.6.041a2.555,2.555,0,0,0,2.19-1.264,2.525,2.525,0,0,0,.351-1.278,2.5,2.5,0,0,0-.27-1.129,2.532,2.532,0,0,0-2.271-1.412c-.043,0-4.314.007-5.475.019h0a.473.473,0,0,1-.4-.717,6.6,6.6,0,0,1,11.329.085h14.185v.614H355.541l-.087-.159a5.987,5.987,0,0,0-10.219-.439c1.434-.01,5.18-.017,5.22-.017a3.143,3.143,0,0,1,2.821,1.751,3.1,3.1,0,0,1,.335,1.4,3.138,3.138,0,0,1-.435,1.589,3.172,3.172,0,0,1-2.72,1.566c-.043,0-4.023-.014-5.464-.039a5.984,5.984,0,0,0,10.481-.063l.087-.16H379.1a2.785,2.785,0,0,0,2.775-2.286,2.725,2.725,0,0,0-2.684-3.149h-2.3v-.614h2.3a3.339,3.339,0,0,1,3.291,3.858,3.4,3.4,0,0,1-3.382,2.805H355.921A6.6,6.6,0,0,1,350.211,880.781Z" transform="translate(-344.318 -867.576)" fill="#0074ff"/>
      </g>
    </g>
    <g id="Grupo_4027" data-name="Grupo 4027" transform="translate(341.227 821.583)">
      <path id="Trazado_8074" data-name="Trazado 8074" d="M346.408,921.788a1.121,1.121,0,0,1-.294-.04l-4.061-1.107a1.122,1.122,0,0,1-.825-1.08V917.1a1.122,1.122,0,0,1,.825-1.08l4.061-1.107a1.119,1.119,0,0,1,1.019.226l1.375,1.166a.507.507,0,0,0,.327.12h11.82a1.121,1.121,0,0,1,1.12,1.119v1.575a1.121,1.121,0,0,1-1.12,1.12h-11.82a.506.506,0,0,0-.327.12l-1.375,1.166A1.119,1.119,0,0,1,346.408,921.788Zm-4.567-4.534v2.307a.507.507,0,0,0,.373.488l4.061,1.108a.5.5,0,0,0,.46-.1l1.374-1.165a1.123,1.123,0,0,1,.724-.266h11.82a.506.506,0,0,0,.506-.506v-1.575a.506.506,0,0,0-.506-.505h-11.82a1.123,1.123,0,0,1-.724-.266l-1.375-1.166a.5.5,0,0,0-.46-.1l-4.061,1.107a.507.507,0,0,0-.372.488Z" transform="translate(-341.227 -914.871)" fill="#0074ff"/>
    </g>
    <g id="Grupo_4028" data-name="Grupo 4028" transform="translate(366.214 823.651)">
      <rect id="Rectángulo_2521" data-name="Rectángulo 2521" width="0.614" height="6.457" transform="translate(0 0)" fill="#0074ff"/>
    </g>
    <g id="Grupo_4030" data-name="Grupo 4030" transform="translate(360.507 822.275)">
      <g id="Grupo_4029" data-name="Grupo 4029" transform="translate(0)">
        <path id="Trazado_8075" data-name="Trazado 8075" d="M423.809,919.577V919.1a1.977,1.977,0,0,0-1.971-1.971H408.344a4.331,4.331,0,0,0-4.318,4.318v1.342a4.331,4.331,0,0,0,4.318,4.318h13.341a2.13,2.13,0,0,0,2.124-2.124v-2.121" transform="translate(-404.026 -917.127)" fill="#89ff00"/>
      </g>
    </g>
    <g id="Grupo_4032" data-name="Grupo 4032" transform="translate(361.273 819.822)">
      <g id="Grupo_4031" data-name="Grupo 4031" transform="translate(0)">
        <path id="Trazado_8076" data-name="Trazado 8076" d="M424.487,919.728H411.146a4.631,4.631,0,0,1-4.625-4.625v-1.342a4.631,4.631,0,0,1,4.625-4.625H424.64a2.28,2.28,0,0,1,2.278,2.278v.479H426.3v-.479a1.665,1.665,0,0,0-1.664-1.664H411.146a4.016,4.016,0,0,0-4.011,4.011V915.1a4.016,4.016,0,0,0,4.011,4.011h13.341A1.819,1.819,0,0,0,426.3,917.3v-2.121h.614V917.3A2.433,2.433,0,0,1,424.487,919.728Z" transform="translate(-406.521 -909.136)" fill="#0074ff"/>
      </g>
    </g>
    <g id="Grupo_4033" data-name="Grupo 4033" transform="translate(371.45 827.885)">
      <rect id="Rectángulo_2522" data-name="Rectángulo 2522" width="8.085" height="0.614" transform="translate(0 0)" fill="#0074ff"/>
    </g>
    <g id="Grupo_4034" data-name="Grupo 4034" transform="translate(367.408 827.885)">
      <rect id="Rectángulo_2523" data-name="Rectángulo 2523" width="2.791" height="0.614" transform="translate(0 0)" fill="#0074ff"/>
    </g>
    <g id="Grupo_4035" data-name="Grupo 4035" transform="translate(352.095 803.372)">
      <rect id="Rectángulo_2524" data-name="Rectángulo 2524" width="8.085" height="0.614" transform="translate(0)" fill="#0074ff"/>
    </g>
    <g id="Grupo_4036" data-name="Grupo 4036" transform="translate(348.052 803.372)">
      <rect id="Rectángulo_2525" data-name="Rectángulo 2525" width="2.791" height="0.614" transform="translate(0)" fill="#0074ff"/>
    </g>
    <g id="Grupo_4037" data-name="Grupo 4037" transform="translate(345.419 791.155)">
      <rect id="Rectángulo_2526" data-name="Rectángulo 2526" width="0.614" height="14.246" transform="translate(0)" fill="#0074ff"/>
    </g>
    <g id="Grupo_4039" data-name="Grupo 4039" transform="translate(341.227 780.254)">
      <g id="Grupo_4038" data-name="Grupo 4038" transform="translate(0 0)">
        <path id="Trazado_8077" data-name="Trazado 8077" d="M375.344,805.708H342.7a1.474,1.474,0,0,1-1.472-1.472V788.652a1.474,1.474,0,0,1,1.472-1.472h13.6l8.3-6.336a2.843,2.843,0,0,1,3.982.513l.027.036a2.843,2.843,0,0,1-.512,3.983l-9.979,7.707-.375-.486,9.979-7.707a2.229,2.229,0,0,0,.4-3.122l-.028-.036a2.227,2.227,0,0,0-3.122-.4l-8.462,6.463H342.7a.859.859,0,0,0-.858.858v15.584a.859.859,0,0,0,.858.858h32.645a1.7,1.7,0,0,0,0-3.407h-7.1V801h10.792a1.7,1.7,0,0,0,0-3.407H368.241v-.685h12.576a1.807,1.807,0,0,0,0-3.613H368.241v-.685h9.811a1.807,1.807,0,1,0,0-3.613h-8.246v-.614h8.246a2.42,2.42,0,0,1,1.526,4.3h1.239a2.421,2.421,0,0,1,0,4.841h-.3a2.317,2.317,0,0,1-1.489,4.092h-2.2a2.317,2.317,0,0,1-1.489,4.093Z" transform="translate(-341.227 -780.254)" fill="#0074ff"/>
      </g>
    </g>
  </g>
</svg>
