<?xml version="1.0" encoding="UTF-8"?>
<svg id="Capa_2" data-name="Capa 2" xmlns="http://www.w3.org/2000/svg" viewBox="0 0 107.17 173.94">
  <defs>
    <style>
      .cls-1 {
        fill: none;
        stroke: #0074ff;
        stroke-linejoin: round;
        stroke-width: 2px;
      }

      .cls-2 {
        fill: #0074ff;
      }

      .cls-3 {
        fill: #89ff00;
      }
    </style>
  </defs>
  <g id="Capa_1-2" data-name="Capa 1">
    <g>
      <path class="cls-2" d="M57.18,100.09c-19.04,0-34.57-15.3-34.94-34.25,0-.38,.31-.7,.69-.7h.63c.37,0,.67,.3,.67,.67,.36,17.86,15,32.28,32.94,32.28s32.58-14.42,32.94-32.28c0-.37,.3-.67,.67-.67h.63c.38,0,.7,.32,.69,.7-.37,18.95-15.91,34.25-34.94,34.25Z"/>
      <path class="cls-2" d="M80.2,173.94H.68c-.38,0-.68-.31-.68-.68v-20.19c0-24.28,19.68-43.97,43.97-43.97h26.43c11.75,0,22.69,4.61,30.9,12.99,.27,.27,.26,.72-.02,.98l-.46,.44c-.27,.26-.69,.24-.95-.02-7.83-8-18.27-12.39-29.47-12.39h-26.43c-23.18,0-41.97,18.79-41.97,41.97v18.19c0,.38,.31,.68,.68,.68H80.2c.38,0,.68,.31,.68,.68v.63c0,.38-.31,.68-.68,.68Z"/>
      <path class="cls-3" d="M74.4,56.06H31.7c1.66,7.41,9.5,13.02,18.93,13.02,7.12,0,13.32-3.2,16.65-7.95h0c3.63-5.23,9.04,6.46,9.04,6.46,2.71-8.65-1.92-11.53-1.92-11.53Z"/>
      <path class="cls-2" d="M51.86,66.36c-.17,0-.33,0-.5,0-7.41-.23-12.46-5.54-13.95-7.33-.26-.31-.2-.76,.12-1l.51-.37c.29-.21,.69-.17,.93,.11,1.34,1.58,5.96,6.4,12.47,6.59,5.83,.17,11.66-3.27,17.44-10.23l.08-.08c.1-.09,2.44-2.3,4.72-1.3,2.17,.95,3.21,4.31,3.15,10.24,0,.38-.32,.7-.71,.69h-.62c-.38-.02-.68-.34-.67-.72,.06-6.73-1.33-8.1-1.95-8.37-.85-.38-2.08,.49-2.5,.88-6.03,7.25-12.26,10.91-18.52,10.91Z"/>
      <rect class="cls-2" x="45.94" y="165.63" width="31.42" height="2" rx=".68" ry=".68"/>
      <rect class="cls-2" x="30.23" y="165.63" width="10.85" height="2" rx=".68" ry=".68"/>
      <rect class="cls-2" x="81.62" y="48.78" width="4.49" height="2" rx=".69" ry=".69"/>
      <rect class="cls-2" x="89.48" y="48.78" width="9.54" height="2" rx=".69" ry=".69"/>
      <path class="cls-1" d="M66.46,7.4c18.24,3.84,32.12,19.49,33.28,38.58h2.64c2.08,0,3.79,1.7,3.79,3.79s-1.7,3.79-3.79,3.79H12.05c-2.08,0-3.79-1.7-3.79-3.79s1.7-3.79,3.79-3.79h3.68c1.13-18.52,14.23-33.8,31.67-38.21l5.49,12.89c0-.07-.02-.14-.02-.21V4.93c0-2.17,1.76-3.93,3.93-3.93s3.93,1.76,3.93,3.93v15.53c0,.18-.03,.35-.05,.52l5.79-13.58Z"/>
    </g>
  </g>
</svg>