<?xml version="1.0" encoding="UTF-8"?>
<svg id="Capa_2" data-name="Capa 2" xmlns="http://www.w3.org/2000/svg" viewBox="0 0 217.87 82.96">
  <defs>
    <style>
      .cls-1 {
        fill: #0074ff;
      }

      .cls-2 {
        fill: #89ff00;
      }
    </style>
  </defs>
  <g id="Capa_1-2" data-name="Capa 1">
    <g>
      <path class="cls-1" d="M134.51,43.75c0,.42-.34,.77-.77,.77H42.22l-.28-.18c-7.84-4.97-14.71-2.66-16.75-1.78-.36,.16-.77,.01-.96-.33l-.36-.63c-.22-.39-.06-.89,.35-1.08,2.35-1.05,9.82-3.62,18.47,1.62,.12,.07,.25,.11,.39,.11h90.66c.42,0,.77,.34,.77,.77v.72Z"/>
      <path class="cls-1" d="M13.97,40.11h-.72c-.42,0-.77-.34-.77-.77v-2.4c0-.61-.5-1.11-1.11-1.11h-2.48c-.42,0-.77-.34-.77-.77v-.72c0-.42,.34-.77,.77-.77h2.48c1.86,0,3.36,1.5,3.36,3.36v2.4c0,.42-.34,.77-.77,.77Z"/>
      <path class="cls-1" d="M61.24,29.49h-.72c-.42,0-.77-.34-.77-.77v-7.93c0-1.99,1.62-3.61,3.61-3.61h3.82c1.99,0,3.61,1.61,3.61,3.61v3.1c0,.75,.61,1.35,1.35,1.35h28.75c.75,0,1.35-.61,1.35-1.35V9.26c0-.42,.34-.77,.77-.77h.72c.42,0,.77,.34,.77,.77v14.63c0,1.99-1.62,3.61-3.61,3.61h-28.75c-1.99,0-3.61-1.62-3.61-3.61v-3.1c0-.75-.61-1.35-1.35-1.35h-3.82c-.75,0-1.35,.61-1.35,1.35v7.93c0,.42-.34,.77-.77,.77Z"/>
      <path class="cls-1" d="M127.02,27.51h-12c-1.95,0-3.53-1.58-3.53-3.53V8.6c0-.42,.34-.77,.77-.77h.72c.42,0,.77,.34,.77,.77v15.38c0,.71,.57,1.28,1.28,1.28h12c.71,0,1.28-.57,1.28-1.28V7.54c0-.68-.53-1.24-1.21-1.28l-1.36-.08c-10.21-.59-37.13-2.15-55.44,8.29-.36,.21-.82,.09-1.03-.27l-.37-.62c-.22-.37-.1-.85,.28-1.06C88.06,1.74,115.47,3.33,125.86,3.93l1.35,.08c1.87,.11,3.34,1.66,3.34,3.54V23.98c0,1.95-1.58,3.53-3.53,3.53Z"/>
      <path class="cls-1" d="M217.11,58.92h-9.52c-.2,0-.4-.08-.54-.22l-1.64-1.64c-.3-.3-.3-.78,0-1.08l.51-.51c.3-.3,.78-.3,1.08,0l.98,.98c.14,.14,.34,.22,.54,.22h6.34c.42,0,.77-.34,.77-.77v-11.03c0-.45-.39-.78-.84-.76-1.88,.1-3.45-1.4-3.45-3.27V23.32c0-.42-.34-.77-.77-.77h-70.98c-.42,0-.77-.34-.77-.77v-.72c0-.42,.34-.77,.77-.77h73.23c.42,0,.77,.34,.77,.77v20.05c0,.45,.39,.78,.84,.76,1.88-.1,3.45,1.4,3.45,3.26v13.02c0,.42-.34,.77-.77,.77Z"/>
      <path class="cls-1" d="M52.83,63.25c-.17,0-.33-.02-.5-.05-1.14-.21-2.16-1.45-2.25-2.6-.71-8.6-4.57-11.73-6.02-12.61-.32-.19-.44-.58-.31-.92l.26-.68c.17-.44,.69-.63,1.1-.39,1.88,1.11,6.46,4.78,7.23,14.56,.02,.29,.24,.39,.36,.42,.13,.03,.37,.04,.53-.22l.22-.35c.49-.81,1.38-1.31,2.33-1.31h79.74c.27,0,.48-.22,.48-.48v-13.06c0-1.51,1.22-2.73,2.73-2.73h14.39c.1-.03,.18-.06,.28-.09,2.43-1.76,15.2-10.06,27.14-.03l.31,.12h26.76c1.51,0,2.73,1.22,2.73,2.73v6.63c0,1.27-.86,2.37-2.1,2.66l-16.83,4c-.85,.2-1.52,.01-3.37-4.18-.17-.39,0-.85,.4-1.01l.67-.28c.38-.16,.83,0,1,.39,.49,1.08,1.04,2.19,1.39,2.76l16.23-3.85c.22-.05,.37-.25,.37-.47v-6.63c0-.27-.22-.48-.48-.48h-26.76c-.66,0-1.29-.25-1.8-.68-10.64-8.9-22.13-1.43-24.33,.16-.47,.34-1.02,.52-1.6,.52h-14.39c-.27,0-.48,.22-.48,.48v13.06c0,1.51-1.22,2.74-2.74,2.74H55.78c-.17,0-.32,.09-.41,.23l-.21,.35c-.51,.84-1.38,1.32-2.31,1.32Z"/>
      <path class="cls-1" d="M12.81,59.97H5.46c-.13,0-.25-.02-.36-.08-1.47-.73-2.58-2.45-3.29-5.04l-.02-.09L.05,44.75c-.16-.94,.07-1.87,.64-2.57,.4-.49,1.25-1.21,2.7-1.13,.47,.03,.79,.49,.67,.95l-.19,.77c-.08,.33-.38,.53-.72,.53-.47,0-.64,.22-.72,.31-.16,.19-.22,.47-.17,.76l1.72,9.89c.51,1.85,1.1,2.73,1.52,3.16,.19,.19,.45,.31,.73,.31h4.37c.39,0,.73-.33,.76-.72,.34-4.68,2.08-8.66,5.16-11.84,.43-.45,.27-.95,.21-1.1-.06-.15-.32-.63-.95-.63H5.47c-.39,0-.72-.3-.77-.69-1.6-13.71,6.17-16.38,7.65-16.76,.15-.04,.3-.06,.45-.08l36.48-3.98c.23-.02,.45-.13,.61-.3,3.56-3.5,7.51-6.66,11.74-9.38,8.01-5.16,16.94-8.8,26.54-10.83C95.8-.18,120.54-.03,131.1,.04c1.59,0,2.88,.02,3.76,.02,1.81,0,3.28,1.47,3.28,3.28V39.64c0,.42-.34,.77-.77,.77h-.72c-.42,0-.77-.34-.77-.77V3.07c0-.42-.34-.77-.76-.77-.88,0-2.27,0-4.04-.02-10.49-.07-35.05-.22-42.44,1.35-9.33,1.97-18.01,5.51-25.79,10.52-4.35,2.8-8.4,6.07-12,9.71-.12,.12-.28,.2-.45,.22L13.03,28.16l-.1,.02c-1.05,.26-6.65,2.15-6.16,12.28,.02,.41,.36,.73,.76,.73,2.07,0,6.95,0,6.95,0l2.67,.12c2.21,.43,2.46,3.93,1,5.43-3.13,3.23-4.68,7.43-4.58,12.45,0,.43-.33,.79-.76,.79Z"/>
      <circle class="cls-2" cx="30.38" cy="65.5" r="17.46"/>
      <path class="cls-1" d="M31.5,72.78c-5.97,0-10.82-4.85-10.82-10.82s4.85-10.82,10.82-10.82,10.82,4.85,10.82,10.82-4.85,10.82-10.82,10.82Zm0-19.38c-4.72,0-8.57,3.84-8.57,8.57s3.84,8.57,8.57,8.57,8.57-3.84,8.57-8.57-3.84-8.57-8.57-8.57Z"/>
      <circle class="cls-2" cx="167.44" cy="65.5" r="17.46"/>
      <path class="cls-1" d="M167.44,80.7c-10.25,0-18.59-8.34-18.59-18.59s8.34-18.59,18.59-18.59,18.59,8.34,18.59,18.59-8.34,18.59-18.59,18.59Zm0-34.92c-9.01,0-16.33,7.33-16.33,16.33s7.33,16.33,16.33,16.33,16.33-7.33,16.33-16.33-7.33-16.33-16.33-16.33Z"/>
      <path class="cls-1" d="M167.44,72.78c-5.97,0-10.82-4.85-10.82-10.82s4.85-10.82,10.82-10.82,10.82,4.85,10.82,10.82-4.85,10.82-10.82,10.82Zm0-19.38c-4.72,0-8.57,3.84-8.57,8.57s3.84,8.57,8.57,8.57,8.57-3.84,8.57-8.57-3.84-8.57-8.57-8.57Z"/>
      <path class="cls-1" d="M31.5,80.7c-10.25,0-18.59-8.34-18.59-18.59s8.34-18.59,18.59-18.59,18.59,8.34,18.59,18.59-8.34,18.59-18.59,18.59Zm0-34.92c-9.01,0-16.33,7.33-16.33,16.33s7.33,16.33,16.33,16.33,16.33-7.33,16.33-16.33-7.33-16.33-16.33-16.33Z"/>
    </g>
  </g>
</svg>