<?xml version="1.0" encoding="UTF-8"?>
<svg id="Capa_2" data-name="Capa 2" xmlns="http://www.w3.org/2000/svg" viewBox="0 0 161.32 173.02">
  <defs>
    <style>
      .cls-1 {
        fill: #0074ff;
      }

      .cls-2 {
        fill: #89ff00;
      }
    </style>
  </defs>
  <g id="Capa_1-2" data-name="Capa 1">
    <rect class="cls-2" x="73.89" y="6.91" width="65.35" height="13.47" rx="6.74" ry="6.74" transform="translate(7.48 -27.88) rotate(15.44)"/>
    <circle class="cls-2" cx="86.54" cy="136.66" r="14.44"/>
    <path class="cls-2" d="M125.2,135.14c-.13-5.43-3.24-10.08-7.73-12.44v25.58c4.71-2.47,7.86-7.46,7.73-13.14Z"/>
    <g>
      <path class="cls-1" d="M19.32,66.5h31.73c.47,0,.85-.38,.85-.85s-.38-.85-.85-.85H19.32c-.47,0-.85,.38-.85,.85s.38,.85,.85,.85Z"/>
      <path class="cls-1" d="M19.32,78.82h13.26c.47,0,.85-.38,.85-.85s-.38-.85-.85-.85h-13.26c-.47,0-.85,.38-.85,.85s.38,.85,.85,.85Z"/>
      <path class="cls-1" d="M19.32,92.08H61.47c.47,0,.85-.38,.85-.85s-.38-.85-.85-.85H19.32c-.47,0-.85,.38-.85,.85s.38,.85,.85,.85Z"/>
      <path class="cls-1" d="M51.05,103.16H19.32c-.47,0-.85,.38-.85,.85s.38,.85,.85,.85h31.73c.47,0,.85-.38,.85-.85s-.38-.85-.85-.85Z"/>
      <path class="cls-1" d="M58.16,66.5h37.89c.47,0,.85-.38,.85-.85s-.38-.85-.85-.85H58.16c-.47,0-.85,.38-.85,.85s.38,.85,.85,.85Z"/>
      <path class="cls-1" d="M84.11,77.96c0-.47-.38-.85-.85-.85H40.4c-.47,0-.85,.38-.85,.85s.38,.85,.85,.85h42.86c.47,0,.85-.38,.85-.85Z"/>
      <path class="cls-1" d="M69.05,92.08h20.36c.47,0,.85-.38,.85-.85s-.38-.85-.85-.85h-20.36c-.47,0-.85,.38-.85,.85s.38,.85,.85,.85Z"/>
      <path class="cls-1" d="M57.3,104.01c0,.47,.38,.85,.85,.85h37.89c.47,0,.85-.38,.85-.85s-.38-.85-.85-.85H58.16c-.47,0-.85,.38-.85,.85Z"/>
      <path class="cls-1" d="M152.66,26.7l-12.43-3.43c-.32-3.08-2.49-5.72-5.5-6.56L84.73,2.9c-3.01-.83-6.23,.33-8.08,2.8l-13.34-3.68c-3.04-.84-6.22-.44-8.97,1.11-2.74,1.56-4.71,4.09-5.55,7.13l-.64,2.33h-15.45c-3.12,0-5.92,1.97-7.04,4.86H11.8C5.29,17.44,0,22.74,0,29.25v127.75c0,6.51,5.29,11.8,11.8,11.8H98.61l13.75,3.8c1.05,.29,2.1,.43,3.14,.43,5.18,0,9.94-3.44,11.38-8.66l34.01-123.14c1.73-6.27-1.96-12.79-8.24-14.52ZM84.27,4.54l50.01,13.81c2.5,.69,4.27,2.99,4.31,5.59,0,.57-.06,1.12-.21,1.65-.86,3.13-4.11,4.97-7.24,4.11l-15.49-4.28c-1.62-4.72-6.13-7.98-11.15-7.98h-12.89c-1.13-2.88-3.92-4.86-7.04-4.86h-7.21c-.56-1.25-.69-2.62-.33-3.94,.14-.52,.37-1.03,.67-1.52,0,0,0,0,0,0,1.37-2.21,4.08-3.28,6.57-2.59Zm32.04,115.99c4.77,3.25,6.99,9.14,5.42,14.82-.87,3.13-2.77,5.78-5.42,7.59v-22.41ZM55.18,4.61c2.35-1.33,5.07-1.67,7.67-.95l12.89,3.56c-.14,.32-.26,.64-.35,.97-.4,1.46-.35,2.97,.12,4.39h-25.6l.52-1.88c.72-2.6,2.41-4.77,4.75-6.1Zm-22.49,9.68h16.09s0,0,0,0c0,0,0,0,0,0h28s0,0,0,0c0,0,0,0,0,0h7.76c2.59,0,4.91,1.75,5.65,4.24,0,0,0,0,0,0,.1,.36,.18,.73,.21,1.12,.02,.17,.03,.35,.03,.52,0,3.25-2.64,5.89-5.89,5.89H32.69c-3.25,0-5.89-2.64-5.89-5.89,0-.55,.08-1.1,.24-1.64,.73-2.5,3.05-4.24,5.65-4.24ZM1.7,156.99V29.25c0-5.57,4.53-10.1,10.1-10.1h13.37c-.05,.34-.07,.69-.07,1.03,0,4.18,3.4,7.59,7.59,7.59h51.88c4.18,0,7.59-3.4,7.59-7.59,0-.23-.01-.46-.03-.68-.01-.12-.03-.23-.05-.35h12.43c4.44,0,8.42,2.97,9.68,7.22,.28,.95,.42,1.91,.42,2.88v127.75c0,5.57-4.53,10.1-10.1,10.1H11.8c-5.57,0-10.1-4.53-10.1-10.1ZM159.25,40.77l-34.01,123.14c-1.48,5.37-7.05,8.53-12.43,7.05l-7.88-2.18c6.31-.23,11.38-5.42,11.38-11.78v-12.05c3.48-2.02,5.99-5.24,7.06-9.13,1.87-6.77-1.04-13.79-7.06-17.28v-11.17l4.92,1.36c.08,.02,.15,.03,.23,.03,.37,0,.72-.25,.82-.63,.12-.45-.14-.92-.59-1.05l-5.37-1.48v-11.5l1.93,.53c.08,.02,.15,.03,.23,.03,.37,0,.72-.25,.82-.63,.12-.45-.14-.92-.59-1.05l-2.38-.66v-12.13c.27-.08,.49-.29,.57-.58,.12-.45-.13-.9-.57-1.04v-11.01l15.13,4.18c.08,.02,.15,.03,.23,.03,.37,0,.72-.25,.82-.63,.12-.45-.14-.92-.59-1.05l-15.58-4.3V29.25c0-.64-.06-1.28-.17-1.92l14.55,4.02c.67,.19,1.35,.27,2.02,.27,3.33,0,6.39-2.21,7.32-5.57,.09-.33,.16-.67,.2-1.01l11.98,3.31c5.37,1.48,8.53,7.06,7.05,12.43Z"/>
      <path class="cls-1" d="M83.49,148.91c8.43,0,15.3-6.86,15.3-15.3s-6.86-15.3-15.3-15.3-15.3,6.86-15.3,15.3,6.86,15.3,15.3,15.3Zm0-28.89c7.5,0,13.59,6.1,13.59,13.59s-6.1,13.59-13.59,13.59-13.59-6.1-13.59-13.59,6.1-13.59,13.59-13.59Z"/>
      <path class="cls-1" d="M93.79,162.35h-23.76c-.48,0-.86,.38-.86,.86s.38,.86,.86,.86h23.76c.48,0,.86-.38,.86-.86s-.38-.86-.86-.86Z"/>
      <path class="cls-1" d="M66.35,162.35h-8.2c-.48,0-.86,.38-.86,.86s.38,.86,.86,.86h8.2c.48,0,.86-.38,.86-.86s-.38-.86-.86-.86Z"/>
      <path class="cls-1" d="M58.89,18.58h23.76c.48,0,.86-.38,.86-.86s-.38-.86-.86-.86h-23.76c-.48,0-.86,.38-.86,.86s.38,.86,.86,.86Z"/>
      <path class="cls-1" d="M47.01,18.58h8.2c.48,0,.86-.38,.86-.86s-.38-.86-.86-.86h-8.2c-.48,0-.86,.38-.86,.86s.38,.86,.86,.86Z"/>
    </g>
  </g>
</svg>