<?xml version="1.0" encoding="UTF-8"?>
<svg id="Capa_2" data-name="Capa 2" xmlns="http://www.w3.org/2000/svg" xmlns:xlink="http://www.w3.org/1999/xlink" viewBox="0 0 72.29 72.29">
  <defs>
    <style>
      .cls-1 {
        fill: #1478fa;
      }

      .cls-2, .cls-3 {
        fill: none;
      }

      .cls-3 {
        clip-path: url(#clippath);
      }

      .cls-4 {
        fill: #8cfc31;
      }
    </style>
    <clipPath id="clippath">
      <rect class="cls-2" width="72.29" height="72.29"/>
    </clipPath>
  </defs>
  <g id="Capa_1-2" data-name="Capa 1">
    <g class="cls-3">
      <g id="Grupo_7024" data-name="Grupo 7024">
        <path id="Trazado_14864" data-name="Trazado 14864" class="cls-4" d="m53.16,41.86c0,7.46-6.05,13.51-13.52,13.51-.04,0-.08,0-.12,0-7.49-.07-13.56-6.1-13.68-13.59-.11-7.22,6.34-13.74,13.6-13.75,7.57,0,13.71,6.12,13.71,13.69,0,.05,0,.1,0,.14"/>
        <path id="Trazado_14865" data-name="Trazado 14865" class="cls-1" d="m41.67,71.62h-11.06v-6.51c-1.41-.27-2.81-.64-4.17-1.11l-3.26,5.63-9.57-5.53,3.26-5.64c-1.09-.94-2.11-1.96-3.05-3.05l-5.64,3.26-5.53-9.57,5.63-3.26c-.47-1.36-.85-2.75-1.11-4.17H.66v-11.06h6.51c.27-1.41.64-2.81,1.11-4.17l-5.63-3.25,5.53-9.57,5.64,3.25c.94-1.09,1.96-2.11,3.05-3.05l-3.25-5.64,9.57-5.53,3.26,5.63c1.36-.47,2.75-.84,4.17-1.11V.66h11.06v6.51c1.42.27,2.81.64,4.17,1.11l3.25-5.63,9.58,5.53-3.25,5.64c1.09.94,2.11,1.96,3.05,3.05l5.64-3.25,5.53,9.57-5.63,3.25c.47,1.36.85,2.75,1.11,4.17h6.51v11.06h-6.51c-.27,1.42-.64,2.81-1.11,4.17l5.63,3.26-5.53,9.58-5.64-3.25c-.94,1.09-1.96,2.11-3.05,3.05l3.25,5.64-9.57,5.53-3.25-5.63c-1.36.47-2.76.85-4.17,1.11v6.51Zm-10.14-.92h9.22v-6.36l.38-.07c1.62-.28,3.21-.71,4.76-1.27l.36-.13,3.18,5.5,7.98-4.61-3.18-5.51.3-.25c1.26-1.06,2.42-2.22,3.48-3.48l.25-.29,5.5,3.18,4.61-7.98-5.5-3.18.13-.36c.56-1.55.99-3.14,1.27-4.76l.07-.38h6.36v-9.22h-6.36l-.07-.38c-.28-1.62-.71-3.21-1.27-4.75l-.13-.36,5.5-3.18-4.61-7.98-5.5,3.18-.25-.3c-1.06-1.26-2.23-2.42-3.48-3.48l-.29-.25,3.18-5.51-7.98-4.6-3.18,5.5-.36-.13c-1.55-.56-3.14-.99-4.76-1.27l-.38-.07V1.59h-9.21v6.36l-.38.07c-1.62.28-3.21.71-4.76,1.27l-.36.13-3.18-5.5-7.98,4.61,3.18,5.51-.3.25c-1.26,1.06-2.43,2.23-3.49,3.49l-.25.3-5.51-3.19-4.61,7.98,5.5,3.18-.13.36c-.56,1.55-.99,3.14-1.27,4.75l-.07.38H1.59v9.22h6.36l.07.38c.28,1.62.71,3.21,1.27,4.76l.13.36-5.5,3.18,4.61,7.98,5.51-3.18.25.29c1.06,1.26,2.23,2.42,3.49,3.48l.3.25-3.18,5.5,7.98,4.61,3.18-5.5.36.13c1.55.56,3.14.98,4.76,1.27l.38.07v6.36Zm4.61-21.89c-.4,0-.81-.02-1.21-.06-2.22-.21-4.34-1-6.15-2.29-1.14-.82-2.15-1.82-2.96-2.97-.47-.66-.88-1.36-1.22-2.09-.59-1.28-.95-2.65-1.08-4.05-.04-.4-.06-.8-.06-1.21,0-.4.02-.81.06-1.21.13-1.4.5-2.77,1.09-4.06.33-.74.74-1.44,1.22-2.1.81-1.14,1.81-2.14,2.96-2.96.66-.47,1.36-.88,2.1-1.22,1.28-.59,2.65-.95,4.05-1.09,2.21-.21,4.44.17,6.47,1.09.74.33,1.44.74,2.1,1.22,1.81,1.29,3.25,3.03,4.17,5.06.59,1.28.96,2.65,1.08,4.05.04.39.06.8.06,1.2,0,.4-.02.81-.06,1.21-.21,2.21-1,4.33-2.29,6.14-.82,1.15-1.82,2.15-2.97,2.97-1.81,1.29-3.93,2.08-6.15,2.29-.4.04-.8.06-1.21.06m0-24.42c-.38,0-.75.02-1.12.05-1.3.12-2.57.46-3.76,1.01-.68.31-1.33.69-1.94,1.12-1.06.75-1.99,1.68-2.75,2.75-.44.61-.82,1.26-1.13,1.94-.55,1.19-.89,2.46-1.01,3.76-.03.37-.05.74-.05,1.12,0,.37.02.74.06,1.12.12,1.3.46,2.57,1,3.76.31.68.69,1.33,1.12,1.94.76,1.06,1.68,2,2.75,2.75,1.68,1.2,3.65,1.93,5.7,2.13.74.07,1.49.07,2.24,0,2.05-.19,4.02-.92,5.7-2.12,1.06-.76,1.99-1.69,2.75-2.75,1.2-1.68,1.93-3.65,2.12-5.7h0c.04-.38.06-.75.06-1.12,0-.38-.02-.75-.05-1.12-.2-2.05-.93-4.02-2.13-5.7-.75-1.06-1.68-1.99-2.74-2.74-.61-.44-1.26-.82-1.94-1.13-1.19-.54-2.45-.88-3.75-1-.37-.04-.75-.06-1.12-.06"/>
        <path id="Trazado_14866" data-name="Trazado 14866" class="cls-1" d="m42.34,72.28h-12.39v-6.63c-1.08-.23-2.15-.51-3.2-.85l-3.31,5.74-10.73-6.19,3.32-5.74c-.82-.74-1.6-1.52-2.34-2.34l-5.75,3.31-6.19-10.72,5.74-3.32c-.34-1.05-.63-2.12-.86-3.2H0v-12.39h6.63c.23-1.08.51-2.15.86-3.2l-5.74-3.32,6.19-10.72,5.74,3.31c.74-.82,1.52-1.61,2.35-2.35l-3.32-5.74L23.44,1.74l3.32,5.74c1.05-.34,2.12-.63,3.2-.86V0h12.38v6.63c1.08.23,2.15.51,3.2.86l3.31-5.74,10.73,6.19-3.32,5.75c.82.74,1.6,1.52,2.34,2.34l5.74-3.31,6.19,10.72-5.74,3.31c.34,1.05.63,2.12.86,3.2h6.63v12.39h-6.62c-.23,1.08-.51,2.15-.86,3.2l5.74,3.32-6.19,10.73-5.75-3.31c-.74.82-1.52,1.6-2.33,2.34l3.31,5.75-10.72,6.19-3.31-5.74c-1.05.34-2.12.63-3.2.85v6.63Zm-10.14-2.25h7.89v-6.25l.93-.16c1.58-.28,3.14-.69,4.65-1.24l.89-.32,3.13,5.41,6.83-3.94-3.13-5.42.72-.61c1.23-1.03,2.37-2.17,3.4-3.4l.61-.72,5.42,3.13,3.94-6.83-5.41-3.12.32-.89c.55-1.51.96-3.06,1.24-4.65l.16-.93h6.25v-7.88h-6.26l-.16-.93c-.28-1.58-.69-3.13-1.24-4.64l-.32-.89,5.41-3.12-3.94-6.83-5.41,3.12-.61-.72c-1.04-1.23-2.17-2.36-3.4-3.4l-.72-.61,3.12-5.42-6.83-3.94-3.12,5.41-.88-.32c-1.51-.55-3.07-.96-4.65-1.24l-.94-.17V2.25h-7.89v6.25l-.93.16c-1.58.28-3.14.69-4.65,1.23l-.89.32-3.12-5.4-6.83,3.94,3.13,5.41-.72.61c-1.23,1.04-2.37,2.17-3.41,3.41l-.61.72-5.41-3.12-3.94,6.83,5.41,3.12-.32.89c-.55,1.51-.96,3.06-1.24,4.64l-.16.93H2.25v7.89h6.25l.16.93c.28,1.58.69,3.14,1.24,4.65l.32.89-5.4,3.12,3.94,6.83,5.42-3.13.61.72c1.03,1.23,2.17,2.37,3.4,3.4l.72.61-3.13,5.41,6.83,3.94,3.13-5.41.89.32c1.51.55,3.06.96,4.64,1.24l.93.16v6.26Zm3.94-20.56c-.42,0-.85-.02-1.27-.06-2.33-.22-4.57-1.06-6.47-2.42-1.2-.86-2.26-1.92-3.11-3.12-.5-.69-.93-1.43-1.28-2.2-.62-1.35-1-2.79-1.14-4.26-.04-.42-.07-.84-.07-1.27,0-.42.02-.85.06-1.27.14-1.48.52-2.92,1.14-4.27.35-.78.78-1.52,1.28-2.21.85-1.2,1.9-2.26,3.11-3.11.69-.5,1.43-.93,2.21-1.28,2.13-.97,4.48-1.37,6.82-1.14,1.47.14,2.91.52,4.25,1.14.78.35,1.52.78,2.21,1.28,1.21.85,2.26,1.9,3.12,3.11.5.69.93,1.43,1.28,2.21.62,1.35,1.01,2.79,1.14,4.26.04.41.06.84.06,1.27,0,.43-.02.86-.07,1.28-.22,2.33-1.05,4.56-2.41,6.46-.86,1.2-1.91,2.26-3.12,3.12-1.91,1.36-4.14,2.19-6.47,2.41-.42.04-.84.07-1.27.06m0-24.42c-.36,0-.71.02-1.05.05-1.23.11-2.43.44-3.55.95-.64.29-1.26.65-1.83,1.06-1,.71-1.88,1.59-2.59,2.59-.42.57-.77,1.18-1.06,1.83-.52,1.12-.84,2.32-.95,3.55-.03.35-.05.71-.05,1.06,0,.35.02.7.05,1.05.11,1.23.43,2.43.95,3.55.29.64.64,1.25,1.06,1.83.72,1.01,1.59,1.88,2.6,2.6.57.41,1.18.76,1.83,1.05,1.77.81,3.72,1.14,5.65.95,1.94-.18,3.8-.87,5.39-2,1-.71,1.88-1.59,2.6-2.6,1.13-1.58,1.82-3.44,2-5.37.04-.35.06-.71.06-1.06,0-.35-.02-.71-.05-1.05-.19-1.94-.88-3.79-2.01-5.38-.71-1-1.59-1.88-2.59-2.59-.57-.42-1.19-.77-1.83-1.07-1.12-.51-2.31-.83-3.54-.94-.35-.04-.71-.06-1.06-.05"/>
        <path id="Trazado_14867" data-name="Trazado 14867" class="cls-1" d="m36.14,48.81c-.4,0-.81-.02-1.21-.06-2.22-.21-4.34-1-6.15-2.29-1.14-.82-2.15-1.82-2.96-2.97-.47-.66-.88-1.36-1.22-2.09-.59-1.28-.95-2.65-1.08-4.05-.04-.4-.06-.8-.06-1.21,0-.4.02-.81.06-1.21.13-1.4.5-2.77,1.09-4.06.33-.74.74-1.44,1.22-2.1.81-1.14,1.81-2.14,2.96-2.96.66-.47,1.36-.88,2.1-1.22,1.28-.59,2.65-.95,4.05-1.09,2.21-.21,4.44.17,6.47,1.09.74.33,1.44.74,2.1,1.22,1.81,1.29,3.25,3.03,4.17,5.06.59,1.28.96,2.65,1.08,4.05.04.39.06.8.06,1.2,0,.41-.02.81-.06,1.22-.21,2.21-1,4.33-2.3,6.14-.82,1.15-1.82,2.15-2.97,2.97-1.81,1.29-3.93,2.08-6.15,2.29-.4.04-.8.06-1.21.06m0-24.42c-.38,0-.75.02-1.12.05-1.3.12-2.57.46-3.76,1.01-.68.31-1.33.69-1.94,1.12-1.06.75-1.99,1.68-2.75,2.75-.44.61-.82,1.26-1.13,1.94-.55,1.19-.89,2.46-1.01,3.76-.03.37-.05.75-.05,1.12,0,.37.02.74.06,1.11.12,1.3.46,2.57,1,3.76.31.68.69,1.33,1.12,1.94.76,1.06,1.68,2,2.75,2.75,1.68,1.2,3.65,1.93,5.7,2.13.74.07,1.49.07,2.24,0,2.05-.19,4.02-.92,5.7-2.12,1.06-.76,1.99-1.69,2.75-2.75,1.2-1.68,1.93-3.65,2.12-5.7.04-.37.06-.75.06-1.12,0-.38-.02-.75-.05-1.12-.2-2.05-.93-4.02-2.13-5.7-.76-1.06-1.68-1.99-2.75-2.74-.61-.44-1.26-.82-1.94-1.13-1.19-.54-2.45-.88-3.75-1-.37-.04-.75-.06-1.12-.06"/>
        <path id="Trazado_14868" data-name="Trazado 14868" class="cls-1" d="m36.14,49.48c-.42,0-.85-.02-1.27-.06-2.33-.22-4.56-1.06-6.47-2.42-1.2-.86-2.26-1.92-3.11-3.12-.5-.69-.93-1.43-1.28-2.2-.62-1.35-1-2.79-1.14-4.26-.04-.42-.07-.84-.07-1.27,0-.42.02-.85.06-1.27.14-1.48.52-2.92,1.14-4.27.35-.78.78-1.52,1.28-2.21.86-1.2,1.91-2.25,3.11-3.11.69-.5,1.43-.93,2.21-1.28,2.13-.98,4.49-1.37,6.82-1.14,1.47.14,2.91.52,4.25,1.14.78.35,1.52.78,2.21,1.28,1.2.86,2.26,1.91,3.11,3.11.5.69.93,1.43,1.28,2.21.62,1.35,1.01,2.79,1.14,4.26.04.41.06.84.06,1.27,0,.43-.02.86-.07,1.28-.22,2.33-1.05,4.55-2.41,6.46-.86,1.21-1.91,2.26-3.12,3.12-1.91,1.36-4.14,2.19-6.47,2.41-.42.04-.84.07-1.27.06m0-24.42c-.36,0-.71.02-1.05.05-1.23.11-2.43.44-3.55.95-.64.29-1.26.65-1.83,1.06-1,.71-1.88,1.59-2.59,2.59-.42.57-.77,1.18-1.06,1.82-.52,1.12-.84,2.32-.95,3.55-.03.35-.05.7-.05,1.06,0,.35.02.7.05,1.05.11,1.23.43,2.43.95,3.55.29.64.64,1.25,1.06,1.83.72,1.01,1.59,1.88,2.6,2.6.57.41,1.18.76,1.83,1.05,1.77.81,3.72,1.14,5.65.95,1.94-.18,3.8-.87,5.39-2,1-.71,1.88-1.59,2.6-2.6,1.13-1.58,1.82-3.44,2-5.37.04-.35.06-.71.06-1.06,0-.35-.02-.71-.05-1.05-.19-1.94-.88-3.79-2.01-5.38-.71-1-1.59-1.88-2.59-2.59-.57-.42-1.19-.77-1.83-1.07-1.12-.51-2.31-.83-3.54-.94-.35-.04-.71-.06-1.07-.05"/>
      </g>
    </g>
  </g>
</svg>