<?xml version="1.0" encoding="UTF-8"?>
<svg id="Capa_2" data-name="Capa 2" xmlns="http://www.w3.org/2000/svg" viewBox="0 0 78 54.33">
  <defs>
    <style>
      .cls-1 {
        fill: #1478fa;
      }

      .cls-2 {
        fill: #8cfc31;
      }
    </style>
  </defs>
  <g id="Capa_1-2" data-name="Capa 1">
    <g>
      <path class="cls-1" d="m50.13,29.19c-.14,0-.27-.05-.38-.16l.24.24.31-.11c-.06.02-.12.03-.18.03Zm0,0c-.14,0-.27-.05-.38-.16l.24.24.31-.11c-.06.02-.12.03-.18.03Zm0,0c-.14,0-.27-.05-.38-.16l.24.24.31-.11c-.06.02-.12.03-.18.03Zm0,0c-.14,0-.27-.05-.38-.16l.24.24.31-.11c-.06.02-.12.03-.18.03Zm0,0c-.14,0-.27-.05-.38-.16l.24.24.31-.11c-.06.02-.12.03-.18.03Zm0,0c-.14,0-.27-.05-.38-.16l.24.24.31-.11c-.06.02-.12.03-.18.03Z"/>
      <polygon class="cls-2" points="68.86 10.11 42 18.74 41 19.08 11.79 9.97 41 2.22 41 1.91 68.86 10.11"/>
      <path class="cls-1" d="m77.88,18.23l-6.32-7.85-1.3-1.62-.02-.02s-.02-.03-.03-.04c-.01-.01-.03-.02-.04-.03h-.01s-.03-.03-.04-.03c-.01-.01-.02-.02-.04-.02,0-.01-.01-.01-.01-.02-.02,0-.03-.01-.04-.01-.03-.01-.05-.02-.08-.02L40.79.02h-.02c-.1-.03-.19-.03-.28,0-.02,0-.03,0-.04,0L8.82,8.41s-.07.02-.11.03c-.03.02-.06.04-.09.05-.03.03-.06.06-.09.09l-.02.03L.13,18.37c-.12.14-.16.32-.11.49.05.17.17.31.34.37l8.04,2.7v18.14c0,.21.12.41.32.49l30.82,13.58.32.14c.07.03.14.05.22.05s.15-.02.22-.05l.05-.02,29.72-14.17.3-.14v-18.19l7.28-2.69c.16-.06.29-.2.33-.36.05-.17.01-.35-.1-.48Zm-76.42.24l7.65-8.92,1.44.44,28.51,8.89-9.37,9.1-20.59-6.94-7.64-2.57Zm38.08,34.5l-30.07-13.25v-17.43l20.19,6.8c.05.02.11.03.16.03.14,0,.28-.05.38-.15l9.34-9.06v33.06Zm.54-34.89L10.87,8.97,40.08,1.22v16.86Zm1.07-16.84l26.86,7.87-26.86,8.63V1.24Zm28.15,38.03l-28.69,13.68V19.89l9.15,9.14c.1.1.23.16.37.16.06,0,.11-.01.17-.03h.02l3.71-1.37,15.27-5.64v17.12Zm1.07-18.65l-17.18,6.33-2.92,1.08-9.16-9.16h.04s28.5-9.16,28.5-9.16l.82,1.02,6.11,7.59-6.21,2.3Z"/>
    </g>
  </g>
</svg>