<?xml version="1.0" encoding="UTF-8"?>
<svg id="Capa_2" data-name="Capa 2" xmlns="http://www.w3.org/2000/svg" xmlns:xlink="http://www.w3.org/1999/xlink" viewBox="0 0 73.86 65.28">
  <defs>
    <style>
      .cls-1 {
        fill: #207cf5;
      }

      .cls-2, .cls-3 {
        fill: none;
      }

      .cls-3 {
        clip-path: url(#clippath);
      }

      .cls-4 {
        fill: #8cfc31;
      }
    </style>
    <clipPath id="clippath">
      <rect class="cls-2" width="73.86" height="65.28"/>
    </clipPath>
  </defs>
  <g id="Capa_1-2" data-name="Capa 1">
    <g class="cls-3">
      <g id="Grupo_7026" data-name="Grupo 7026">
        <path id="Trazado_14869" data-name="Trazado 14869" class="cls-1" d="m69.39,64.91H4.47c-2.23.03-4.06-1.74-4.1-3.97V4.34C.41,2.12,2.24.34,4.47.37h64.92c2.23-.03,4.06,1.74,4.1,3.97v56.59c-.04,2.23-1.87,4-4.1,3.97M4.47,1.11c-1.82-.03-3.32,1.41-3.36,3.23v56.59c.04,1.82,1.54,3.26,3.36,3.23h64.92c1.82.03,3.32-1.41,3.36-3.23V4.34c-.04-1.82-1.54-3.26-3.36-3.23H4.47Z"/>
        <path id="Trazado_14870" data-name="Trazado 14870" class="cls-1" d="m69.39,65.28H4.47c-2.43.03-4.43-1.91-4.47-4.34V4.34C.04,1.91,2.04-.03,4.47,0h64.92c2.43-.03,4.43,1.91,4.47,4.34v56.59c-.04,2.43-2.04,4.37-4.47,4.34M.74,60.94c.04,2.02,1.7,3.63,3.73,3.6h64.92c2.02.03,3.69-1.58,3.73-3.6h0c-.04,2.02-1.71,3.63-3.73,3.6H4.47c-2.02.03-3.69-1.58-3.73-3.6M4.47,1.49c-1.61-.03-2.95,1.25-2.98,2.86v56.59c.04,1.61,1.37,2.89,2.98,2.86h64.92c1.61.03,2.95-1.25,2.99-2.86V4.34c-.04-1.61-1.37-2.89-2.99-2.86H4.47Z"/>
        <path id="Trazado_14871" data-name="Trazado 14871" class="cls-1" d="m19.29,54.28c-7.28.16-13.32-5.61-13.48-12.89-.14-6.13,3.97-11.55,9.91-13.07,1.02-.24,2.07-.37,3.12-.37h.37v13.18h13.43v.38c-.02,1.69-.37,3.36-1.01,4.91-2.22,4.81-7.04,7.88-12.33,7.86m-.83-25.59c-.86.03-1.72.14-2.56.34-6.66,1.71-10.67,8.5-8.95,15.16,1.44,5.6,6.56,9.48,12.34,9.34,5,.02,9.55-2.87,11.65-7.41.56-1.35.88-2.79.94-4.25h-13.42v-13.18Z"/>
        <path id="Trazado_14872" data-name="Trazado 14872" class="cls-1" d="m19.29,54.65c-7.49.16-13.69-5.77-13.86-13.26-.14-6.3,4.08-11.87,10.19-13.43,1.05-.25,2.13-.38,3.21-.38h.74v13.18h13.43v.75c-.03,1.74-.39,3.45-1.05,5.05-2.27,4.95-7.23,8.11-12.67,8.09m-13.11-13.59c.08,7.17,5.95,12.91,13.12,12.85-7.17.06-13.03-5.68-13.12-12.85m11.92-11.98c-.71.04-1.41.15-2.11.31-6.46,1.66-10.35,8.24-8.69,14.7,1.4,5.45,6.37,9.21,11.99,9.07,4.85.02,9.27-2.79,11.31-7.19.49-1.19.79-2.45.89-3.73h-13.39v-13.16Zm14.16,12.78v.03c-.06,1.31-.31,2.59-.76,3.82.45-1.24.7-2.53.76-3.85"/>
        <path id="Trazado_14873" data-name="Trazado 14873" class="cls-4" d="m38.11,35.36h-13.43v-13.18h.21c7.15.12,12.96,4.68,13.21,12.64,0,.18,0,.35,0,.54"/>
        <path id="Trazado_14874" data-name="Trazado 14874" class="cls-4" d="m49.9,48.48h-2.93c-.23,0-.41-.18-.41-.41v-10.2c0-.23.18-.41.41-.41h2.93c.23,0,.41.18.41.41v10.19c0,.23-.18.41-.41.41"/>
        <path id="Trazado_14875" data-name="Trazado 14875" class="cls-4" d="m57.97,48.47h-2.93c-.23,0-.41-.18-.41-.41v-16.05c0-.23.18-.41.41-.41h2.93c.23,0,.41.18.41.41v16.05c0,.23-.18.41-.41.41"/>
        <path id="Trazado_14876" data-name="Trazado 14876" class="cls-4" d="m66.43,48.47h-2.93c-.23,0-.41-.18-.41-.41v-22.46c0-.23.18-.41.41-.41h2.93c.23,0,.41.18.41.41v22.46c0,.23-.18.41-.41.41"/>
        <path id="Trazado_14877" data-name="Trazado 14877" class="cls-1" d="m56.42,49.84h-2.8c-.43,0-.78-.35-.78-.78v-15.13c0-.43.35-.78.78-.78h2.8c.43,0,.78.35.78.78h0v15.14c0,.43-.35.78-.78.78m-2.8-15.95s-.04.02-.04.04v15.13s.02.04.04.04h2.8s.04-.02.04-.04v-15.13s-.02-.04-.04-.04h-2.8Z"/>
        <path id="Trazado_14878" data-name="Trazado 14878" class="cls-1" d="m56.42,50.22h-2.8c-.64,0-1.15-.52-1.15-1.15v-15.13c0-.64.52-1.15,1.15-1.15h2.8c.64,0,1.15.52,1.15,1.15v15.13c0,.64-.52,1.15-1.15,1.15m-3.21-1.15c0,.23.18.41.41.41h2.8c.23,0,.41-.18.41-.41h0c0,.23-.18.41-.41.41h-2.8c-.23,0-.41-.18-.41-.41m.74-.33h2.13v-14.46h-2.13v14.46Z"/>
        <path id="Trazado_14879" data-name="Trazado 14879" class="cls-1" d="m64.57,49.96h-2.8c-.43,0-.78-.35-.78-.78v-21.33c0-.43.35-.78.78-.78h2.8c.43,0,.78.35.78.78h0v21.33c0,.43-.35.78-.78.78m-2.8-22.15s-.04.02-.04.04v21.33s.02.04.04.04h2.8s.04-.02.04-.04v-21.33s-.02-.04-.04-.04h-2.8Z"/>
        <path id="Trazado_14880" data-name="Trazado 14880" class="cls-1" d="m64.57,50.33h-2.8c-.64,0-1.15-.52-1.15-1.15v-21.33c0-.64.52-1.15,1.15-1.15h2.8c.64,0,1.15.52,1.15,1.15v21.33c0,.64-.52,1.15-1.15,1.15m-3.21-1.15c0,.23.18.41.41.41h2.8c.23,0,.41-.18.41-.41h0c0,.23-.18.41-.41.41h-2.8c-.23,0-.41-.18-.41-.41m.74-.33h2.13v-20.67h-2.13v20.67Z"/>
        <rect id="Rectángulo_3136" data-name="Rectángulo 3136" class="cls-1" x=".74" y="11.89" width="72.37" height=".74"/>
        <path id="Trazado_14881" data-name="Trazado 14881" class="cls-1" d="m73.49,13H.37v-1.48h73.12v1.48Z"/>
        <path id="Trazado_14882" data-name="Trazado 14882" class="cls-1" d="m36.25,38.33h-14.17v-13.93h.58c7.89.13,13.35,5.35,13.58,13,0,.18,0,.36,0,.55v.38Zm-13.42-.74h12.68c0-.05,0-.1,0-.15-.22-7.18-5.3-12.1-12.67-12.29v12.44Z"/>
        <path id="Trazado_14883" data-name="Trazado 14883" class="cls-1" d="m36.62,38.7h-14.91v-14.67h.95c8.11.13,13.71,5.5,13.95,13.36,0,.17,0,.36,0,.56v.74Zm-13.42-1.49h11.92c-.31-6.7-5.06-11.34-11.92-11.68v11.68Zm1.21-12.32c6.27.52,11.17,5.63,11.43,11.91-.25-6.29-5.16-11.41-11.43-11.91"/>
        <path id="Trazado_14884" data-name="Trazado 14884" class="cls-1" d="m48.28,49.96h-2.8c-.43,0-.78-.35-.78-.78v-9.81c0-.43.35-.78.78-.78h2.8c.43,0,.78.35.78.78v9.82c0,.43-.35.78-.78.78m-2.8-10.63s-.04.02-.04.04h0v9.81s.02.04.04.04h2.8s.04-.02.04-.04v-9.81s-.02-.04-.04-.04h-2.8Z"/>
        <path id="Trazado_14885" data-name="Trazado 14885" class="cls-1" d="m48.28,50.33h-2.8c-.64,0-1.15-.52-1.15-1.15v-9.81c0-.64.52-1.15,1.15-1.15h2.8c.64,0,1.15.52,1.15,1.15v9.81c0,.64-.52,1.15-1.15,1.15m-3.21-1.15c0,.23.18.41.41.41h2.8c.23,0,.41-.18.41-.41h0c0,.23-.18.41-.41.41h-2.8c-.23,0-.41-.18-.41-.41m.74-.33h2.13v-9.15h-2.13v9.15Z"/>
      </g>
    </g>
  </g>
</svg>