<?xml version="1.0" encoding="UTF-8"?>
<svg id="Capa_2" data-name="Capa 2" xmlns="http://www.w3.org/2000/svg" viewBox="0 0 117.07 172.61">
  <defs>
    <style>
      .cls-1 {
        fill: #0074ff;
      }

      .cls-2 {
        fill: #89ff00;
      }
    </style>
  </defs>
  <g id="Capa_1-2" data-name="Capa 1">
    <g>
      <path class="cls-2" d="M19.08,87.17H117.07v85.44H14.63V91.62c0-2.46,1.99-4.45,4.45-4.45Z"/>
      <path class="cls-1" d="M90.5,60.56h-1c-.37,0-.67-.3-.67-.67v-22.55c0-19.3-16.03-35-35.72-35S17.38,18.04,17.38,37.34v22.55c0,.37-.3,.67-.67,.67h-1c-.37,0-.67-.3-.67-.67v-22.55C15.03,16.75,32.11,0,53.1,0s38.07,16.75,38.07,37.34v22.55c0,.37-.3,.67-.67,.67Z"/>
      <g>
        <path class="cls-1" d="M34.96,115.58l5.36-2.84,1.21,1.74-5.81,3.13,5.81,3.13-1.21,1.74-5.36-2.84v4.94h-2.08v-4.97l-5.39,2.87-1.21-1.74,5.81-3.13-5.81-3.13,1.21-1.74,5.39,2.87v-4.97h2.08v4.94Z"/>
        <path class="cls-1" d="M54.15,115.58l5.36-2.84,1.21,1.74-5.81,3.13,5.81,3.13-1.21,1.74-5.36-2.84v4.94h-2.08v-4.97l-5.39,2.87-1.21-1.74,5.81-3.13-5.81-3.13,1.21-1.74,5.39,2.87v-4.97h2.08v4.94Z"/>
        <path class="cls-1" d="M73.34,115.58l5.36-2.84,1.21,1.74-5.81,3.13,5.81,3.13-1.21,1.74-5.36-2.84v4.94h-2.08v-4.97l-5.39,2.87-1.21-1.74,5.81-3.13-5.81-3.13,1.21-1.74,5.39,2.87v-4.97h2.08v4.94Z"/>
      </g>
      <path class="cls-1" d="M100.51,169.57H2.7c-1.49,0-2.7-1.21-2.7-2.7V69.06c0-1.49,1.21-2.7,2.7-2.7H100.51c1.49,0,2.7,1.21,2.7,2.7v97.8c0,1.49-1.21,2.7-2.7,2.7ZM2.7,68.36c-.39,0-.7,.32-.7,.7v97.8c0,.39,.32,.7,.7,.7H100.51c.39,0,.7-.32,.7-.7V69.06c0-.39-.32-.7-.7-.7H2.7Z"/>
    </g>
  </g>
</svg>